<?xml version="1.0" encoding="UTF-8" standalone="no"?>
<!-- Created with Inkscape (http://www.inkscape.org/) -->

<svg
   xmlns:dc="http://purl.org/dc/elements/1.1/"
   xmlns:cc="http://creativecommons.org/ns#"
   xmlns:rdf="http://www.w3.org/1999/02/22-rdf-syntax-ns#"
   xmlns:svg="http://www.w3.org/2000/svg"
   xmlns="http://www.w3.org/2000/svg"
   xmlns:sodipodi="http://sodipodi.sourceforge.net/DTD/sodipodi-0.dtd"
   xmlns:inkscape="http://www.inkscape.org/namespaces/inkscape"
   width="744.09448819"
   height="1052.3622047"
   id="svg2"
   version="1.1"
   inkscape:version="0.48.3.1 r9886"
   sodipodi:docname="New document 1">
  <defs
     id="defs4" />
  <sodipodi:namedview
     id="base"
     pagecolor="#ffffff"
     bordercolor="#666666"
     borderopacity="1.0"
     inkscape:pageopacity="0.0"
     inkscape:pageshadow="2"
     inkscape:zoom="0.89634582"
     inkscape:cx="333.70133"
     inkscape:cy="719.4882"
     inkscape:document-units="px"
     inkscape:current-layer="layer1"
     showgrid="false"
     showguides="true"
     inkscape:guide-bbox="true"
     inkscape:window-width="1519"
     inkscape:window-height="814"
     inkscape:window-x="393"
     inkscape:window-y="237"
     inkscape:window-maximized="0">
    <sodipodi:guide
       orientation="0,1"
       position="428.36032,525.39221"
       id="guide2985" />
    <sodipodi:guide
       orientation="1,0"
       position="380.23881,851.1985"
       id="guide2987" />
  </sodipodi:namedview>
  <metadata
     id="metadata7">
    <rdf:RDF>
      <cc:Work
         rdf:about="">
        <dc:format>image/svg+xml</dc:format>
        <dc:type
           rdf:resource="http://purl.org/dc/dcmitype/StillImage" />
        <dc:title></dc:title>
      </cc:Work>
    </rdf:RDF>
  </metadata>
  <g
     inkscape:label="Layer 1"
     inkscape:groupmode="layer"
     id="layer1">
    <path
       style="fill:#8db6cd;fill-rule:evenodd;stroke:#000000;stroke-width:1px;stroke-linecap:butt;stroke-linejoin:miter;stroke-opacity:1;fill-opacity:1"
       d="M 161.4375 256.65625 L 161.4375 398.0625 L 377.15625 398.0625 L 377.15625 256.65625 L 304.53125 256.65625 C 305.03504 257.83258 305.28125 259.08177 305.28125 260.34375 C 305.28125 269.05745 292.5909 276.09375 276.90625 276.09375 C 261.2216 276.09375 248.5 269.05745 248.5 260.34375 C 248.5 259.08177 248.74621 257.83258 249.25 256.65625 L 161.4375 256.65625 z "
       id="rect2989" />
    <path
       style="fill:#6cb6cd;stroke:none;fill-opacity:0"
       d="m 162.839,326.92455 0,-69.28572 106.42857,0 106.42857,0 0,69.28572 0,69.28571 -106.42857,0 -106.42857,0 0,-69.28571 z"
       id="path2991"
       inkscape:connector-curvature="0" />
    <rect
       style="fill:#1a303c;fill-opacity:1"
       id="rect3907"
       width="8.5714283"
       height="127.14285"
       x="-377.7554"
       y="55.505856"
       transform="matrix(-0.61840839,-0.7858569,0.7858569,-0.61840839,0,0)" />
    <rect
       style="fill:#1a303c;fill-opacity:1"
       id="rect3907-2"
       width="8.5714283"
       height="127.14285"
       x="-34.965103"
       y="-379.21762"
       transform="matrix(0.61840839,-0.7858569,-0.7858569,-0.61840839,0,0)" />
    <rect
       style="fill:#1a303c;fill-opacity:1"
       id="rect3930"
       width="202.01213"
       height="127.4916"
       x="167.24196"
       y="263.48499" />
    <rect
       style="fill:#000000;fill-opacity:0.5205479"
       id="rect3935"
       width="3.9327621"
       height="422.25452"
       x="380.2388"
       y="132.32635" />
    <rect
       style="fill:#000000;fill-opacity:0.5205479"
       id="rect3935-9"
       width="3.9324794"
       height="495.21686"
       x="-403.50488"
       y="121.28971"
       transform="matrix(0,-1,1,0,0,0)" />
    <rect
       style="fill:#000000;fill-opacity:0.5205479"
       id="rect3935-4"
       width="3.9327497"
       height="464.64868"
       x="442.96036"
       y="88.74868" />
    <rect
       style="fill:#000000;fill-opacity:0.5205479"
       id="rect3935-4-9"
       width="3.9328346"
       height="386.55389"
       x="499.75952"
       y="166.84354" />
    <rect
       style="fill:#000000;fill-opacity:0.5205479"
       id="rect3935-9-6"
       width="2.8171585"
       height="527.57123"
       x="-454.45514"
       y="113.78576"
       transform="matrix(0,-1,1,0,0,0)" />
    <rect
       style="fill:#784421;fill-opacity:1"
       id="rect4009"
       width="188.54166"
       height="68.632317"
       x="443.349"
       y="327.38403" />
    <rect
       style="fill:#deaa87;fill-opacity:1"
       id="rect4009-3"
       width="123.85373"
       height="70.998947"
       x="474.50964"
       y="319.10083" />
    <rect
       style="fill:#a05a2c;fill-opacity:1"
       id="rect4031"
       width="120.69821"
       height="3.1555088"
       x="475.69296"
       y="358.93912" />
    <rect
       style="fill:#a05a2c;fill-opacity:1"
       id="rect4031-0"
       width="30.174553"
       height="3.1555088"
       x="-353.51556"
       y="534.06982"
       transform="matrix(0,-1,1,0,0,0)" />
    <rect
       style="fill:#7c916f;fill-opacity:1"
       id="rect4051"
       width="139.63129"
       height="127.7981"
       x="223.25224"
       y="418.8938" />
  </g>
</svg>
